<svg viewBox="0 0 600 300" xmlns="http://www.w3.org/2000/svg"><defs><svg id="0_SEED_M" width="100" height="100" viewBox="0 0 100 100" xmlns="http://www.w3.org/2000/svg"><rect width="100" height="100" fill="#3d3846"/><line x1="0.0" y1="1.5" x2="100.0" y2="1.5" stroke-width="3.0" stroke="#000000" /><text x="50.0" y="11.5" fill="#ffffff" font-size="0.85em" text-anchor="middle" transform="rotate(180, 50.0, 11.5)">0</text><line x1="98.5" y1="0.0" x2="98.5" y2="100.0" stroke-width="3.0" stroke="#000000" /><line x1="93.0" y1="0.0" x2="93.0" y2="100.0" stroke-width="2.0" stroke="#000000" /><text x="83.5" y="50.0" fill="#ffffff" font-size="0.85em" text-anchor="middle" transform="rotate(270, 83.5, 50.0)">GL</text><line x1="100.0" y1="98.5" x2="0.0" y2="98.5" stroke-width="3.0" stroke="#000000" stroke-dasharray="4.0"/><line x1="1.5" y1="100.0" x2="1.5" y2="0.0" stroke-width="3.0" stroke="#000000" /><line x1="7.0" y1="100.0" x2="7.0" y2="0.0" stroke-width="2.0" stroke="#000000" /><text x="16.5" y="50.0" fill="#ffffff" font-size="0.85em" text-anchor="middle" transform="rotate(90, 16.5, 50.0)">GL</text><text x="50" y="60" fill="#ffffff" font-size="0.85em" text-anchor="middle" transform="rotate(0, 50, 60)">0_SEED_M</text><text x="50" y="40" fill="#ffffff" font-size="1.1em" text-anchor="middle" transform="rotate(0, 50, 40)">0</text></svg><svg id="0_SEED_L" width="100" height="100" viewBox="0 0 100 100" xmlns="http://www.w3.org/2000/svg"><rect width="100" height="100" fill="#3d3846"/><line x1="0.0" y1="1.5" x2="100.0" y2="1.5" stroke-width="3.0" stroke="#000000" /><text x="50.0" y="11.5" fill="#ffffff" font-size="0.85em" text-anchor="middle" transform="rotate(180, 50.0, 11.5)">0_L</text><line x1="98.5" y1="0.0" x2="98.5" y2="100.0" stroke-width="3.0" stroke="#000000" /><line x1="93.0" y1="0.0" x2="93.0" y2="100.0" stroke-width="2.0" stroke="#000000" /><text x="83.5" y="50.0" fill="#ffffff" font-size="0.85em" text-anchor="middle" transform="rotate(270, 83.5, 50.0)">GL</text><line x1="100.0" y1="98.5" x2="0.0" y2="98.5" stroke-width="3.0" stroke="#000000" stroke-dasharray="4.0"/><line x1="1.5" y1="100.0" x2="1.5" y2="0.0" stroke-width="3.0" stroke="#000000" stroke-dasharray="4.0"/><text x="50" y="60" fill="#ffffff" font-size="0.85em" text-anchor="middle" transform="rotate(0, 50, 60)">0_SEED_L</text><text x="50" y="40" fill="#ffffff" font-size="1.1em" text-anchor="middle" transform="rotate(0, 50, 40)">0</text></svg><svg id="0_SEED_R" width="100" height="100" viewBox="0 0 100 100" xmlns="http://www.w3.org/2000/svg"><rect width="100" height="100" fill="#3d3846"/><line x1="0.0" y1="1.5" x2="100.0" y2="1.5" stroke-width="3.0" stroke="#000000" /><line x1="0.0" y1="7.0" x2="100.0" y2="7.0" stroke-width="2.0" stroke="#000000" /><text x="50.0" y="16.5" fill="#ffffff" font-size="0.85em" text-anchor="middle" transform="rotate(180, 50.0, 16.5)">0_INCR</text><line x1="98.5" y1="0.0" x2="98.5" y2="100.0" stroke-width="3.0" stroke="#000000" stroke-dasharray="4.0"/><line x1="100.0" y1="98.5" x2="0.0" y2="98.5" stroke-width="3.0" stroke="#000000" stroke-dasharray="4.0"/><line x1="1.5" y1="100.0" x2="1.5" y2="0.0" stroke-width="3.0" stroke="#000000" /><line x1="7.0" y1="100.0" x2="7.0" y2="0.0" stroke-width="2.0" stroke="#000000" /><text x="16.5" y="50.0" fill="#ffffff" font-size="0.85em" text-anchor="middle" transform="rotate(90, 16.5, 50.0)">GL</text><text x="50" y="60" fill="#ffffff" font-size="0.85em" text-anchor="middle" transform="rotate(0, 50, 60)">0_SEED_R</text><text x="50" y="40" fill="#ffffff" font-size="1.1em" text-anchor="middle" transform="rotate(0, 50, 40)">0</text></svg><svg id="1_SEED_M" width="100" height="100" viewBox="0 0 100 100" xmlns="http://www.w3.org/2000/svg"><rect width="100" height="100" fill="#5e5c64"/><line x1="0.0" y1="1.5" x2="100.0" y2="1.5" stroke-width="3.0" stroke="#000000" /><text x="50.0" y="11.5" fill="#ffffff" font-size="0.85em" text-anchor="middle" transform="rotate(180, 50.0, 11.5)">1</text><line x1="98.5" y1="0.0" x2="98.5" y2="100.0" stroke-width="3.0" stroke="#000000" /><line x1="93.0" y1="0.0" x2="93.0" y2="100.0" stroke-width="2.0" stroke="#000000" /><text x="83.5" y="50.0" fill="#ffffff" font-size="0.85em" text-anchor="middle" transform="rotate(270, 83.5, 50.0)">GL</text><line x1="100.0" y1="98.5" x2="0.0" y2="98.5" stroke-width="3.0" stroke="#000000" stroke-dasharray="4.0"/><line x1="1.5" y1="100.0" x2="1.5" y2="0.0" stroke-width="3.0" stroke="#000000" /><line x1="7.0" y1="100.0" x2="7.0" y2="0.0" stroke-width="2.0" stroke="#000000" /><text x="16.5" y="50.0" fill="#ffffff" font-size="0.85em" text-anchor="middle" transform="rotate(90, 16.5, 50.0)">GL</text><text x="50" y="60" fill="#ffffff" font-size="0.85em" text-anchor="middle" transform="rotate(0, 50, 60)">1_SEED_M</text><text x="50" y="40" fill="#ffffff" font-size="1.1em" text-anchor="middle" transform="rotate(0, 50, 40)">1</text></svg><svg id="00_INCR_M" width="100" height="100" viewBox="0 0 100 100" xmlns="http://www.w3.org/2000/svg"><rect width="100" height="100" fill="#ffffff"/><line x1="0.0" y1="1.5" x2="100.0" y2="1.5" stroke-width="3.0" stroke="#000000" /><text x="50.0" y="11.5" fill="#000000" font-size="0.85em" text-anchor="middle" transform="rotate(180, 50.0, 11.5)">0</text><line x1="98.5" y1="0.0" x2="98.5" y2="100.0" stroke-width="3.0" stroke="#000000" /><text x="88.5" y="50.0" fill="#000000" font-size="0.85em" text-anchor="middle" transform="rotate(270, 88.5, 50.0)">0_INCR</text><line x1="100.0" y1="98.5" x2="0.0" y2="98.5" stroke-width="3.0" stroke="#000000" /><text x="50.0" y="88.5" fill="#000000" font-size="0.85em" text-anchor="middle" transform="rotate(0, 50.0, 88.5)">0</text><line x1="1.5" y1="100.0" x2="1.5" y2="0.0" stroke-width="3.0" stroke="#000000" /><text x="11.5" y="50.0" fill="#000000" font-size="0.85em" text-anchor="middle" transform="rotate(90, 11.5, 50.0)">0_INCR</text><text x="50" y="60" fill="#000000" font-size="0.85em" text-anchor="middle" transform="rotate(0, 50, 60)">00_INCR_M</text><text x="50" y="40" fill="#000000" font-size="1.1em" text-anchor="middle" transform="rotate(0, 50, 40)">0</text></svg><svg id="11_INCR_M" width="100" height="100" viewBox="0 0 100 100" xmlns="http://www.w3.org/2000/svg"><rect width="100" height="100" fill="#ffffff"/><line x1="0.0" y1="1.5" x2="100.0" y2="1.5" stroke-width="3.0" stroke="#000000" /><text x="50.0" y="11.5" fill="#000000" font-size="0.85em" text-anchor="middle" transform="rotate(180, 50.0, 11.5)">0</text><line x1="98.5" y1="0.0" x2="98.5" y2="100.0" stroke-width="3.0" stroke="#000000" /><text x="88.5" y="50.0" fill="#000000" font-size="0.85em" text-anchor="middle" transform="rotate(270, 88.5, 50.0)">1_INCR</text><line x1="100.0" y1="98.5" x2="0.0" y2="98.5" stroke-width="3.0" stroke="#000000" /><text x="50.0" y="88.5" fill="#000000" font-size="0.85em" text-anchor="middle" transform="rotate(0, 50.0, 88.5)">1</text><line x1="1.5" y1="100.0" x2="1.5" y2="0.0" stroke-width="3.0" stroke="#000000" /><text x="11.5" y="50.0" fill="#000000" font-size="0.85em" text-anchor="middle" transform="rotate(90, 11.5, 50.0)">1_INCR</text><text x="50" y="60" fill="#000000" font-size="0.85em" text-anchor="middle" transform="rotate(0, 50, 60)">11_INCR_M</text><text x="50" y="40" fill="#000000" font-size="1.1em" text-anchor="middle" transform="rotate(0, 50, 40)">0</text></svg><svg id="00_INCR_L" width="100" height="100" viewBox="0 0 100 100" xmlns="http://www.w3.org/2000/svg"><rect width="100" height="100" fill="#c0bfbc"/><line x1="0.0" y1="1.5" x2="100.0" y2="1.5" stroke-width="3.0" stroke="#000000" /><line x1="0.0" y1="7.0" x2="100.0" y2="7.0" stroke-width="2.0" stroke="#000000" /><text x="50.0" y="16.5" fill="#000000" font-size="0.85em" text-anchor="middle" transform="rotate(180, 50.0, 16.5)">0_COPY</text><line x1="98.5" y1="0.0" x2="98.5" y2="100.0" stroke-width="3.0" stroke="#000000" /><text x="88.5" y="50.0" fill="#000000" font-size="0.85em" text-anchor="middle" transform="rotate(270, 88.5, 50.0)">0_INCR</text><line x1="100.0" y1="98.5" x2="0.0" y2="98.5" stroke-width="3.0" stroke="#000000" /><text x="50.0" y="88.5" fill="#000000" font-size="0.85em" text-anchor="middle" transform="rotate(0, 50.0, 88.5)">0_L</text><line x1="1.5" y1="100.0" x2="1.5" y2="0.0" stroke-width="3.0" stroke="#000000" stroke-dasharray="4.0"/><text x="50" y="60" fill="#000000" font-size="0.85em" text-anchor="middle" transform="rotate(0, 50, 60)">00_INCR_L</text><text x="50" y="40" fill="#000000" font-size="1.1em" text-anchor="middle" transform="rotate(0, 50, 40)">0</text></svg><svg id="11_INCR_L" width="100" height="100" viewBox="0 0 100 100" xmlns="http://www.w3.org/2000/svg"><rect width="100" height="100" fill="#c0bfbc"/><line x1="0.0" y1="1.5" x2="100.0" y2="1.5" stroke-width="3.0" stroke="#000000" /><line x1="0.0" y1="7.0" x2="100.0" y2="7.0" stroke-width="2.0" stroke="#000000" /><text x="50.0" y="16.5" fill="#000000" font-size="0.85em" text-anchor="middle" transform="rotate(180, 50.0, 16.5)">0_COPY</text><line x1="98.5" y1="0.0" x2="98.5" y2="100.0" stroke-width="3.0" stroke="#000000" /><text x="88.5" y="50.0" fill="#000000" font-size="0.85em" text-anchor="middle" transform="rotate(270, 88.5, 50.0)">1_INCR</text><line x1="100.0" y1="98.5" x2="0.0" y2="98.5" stroke-width="3.0" stroke="#000000" /><text x="50.0" y="88.5" fill="#000000" font-size="0.85em" text-anchor="middle" transform="rotate(0, 50.0, 88.5)">1_L</text><line x1="1.5" y1="100.0" x2="1.5" y2="0.0" stroke-width="3.0" stroke="#000000" stroke-dasharray="4.0"/><text x="50" y="60" fill="#000000" font-size="0.85em" text-anchor="middle" transform="rotate(0, 50, 60)">11_INCR_L</text><text x="50" y="40" fill="#000000" font-size="1.1em" text-anchor="middle" transform="rotate(0, 50, 40)">0</text></svg><svg id="0_INCR_R" width="100" height="100" viewBox="0 0 100 100" xmlns="http://www.w3.org/2000/svg"><rect width="100" height="100" fill="#c0bfbc"/><line x1="0.0" y1="1.5" x2="100.0" y2="1.5" stroke-width="3.0" stroke="#000000" /><text x="50.0" y="11.5" fill="#000000" font-size="0.85em" text-anchor="middle" transform="rotate(180, 50.0, 11.5)">0_R</text><line x1="98.5" y1="0.0" x2="98.5" y2="100.0" stroke-width="3.0" stroke="#000000" stroke-dasharray="4.0"/><line x1="100.0" y1="98.5" x2="0.0" y2="98.5" stroke-width="3.0" stroke="#000000" /><line x1="100.0" y1="93.0" x2="0.0" y2="93.0" stroke-width="2.0" stroke="#000000" /><text x="50.0" y="83.5" fill="#000000" font-size="0.85em" text-anchor="middle" transform="rotate(0, 50.0, 83.5)">1_INCR</text><line x1="1.5" y1="100.0" x2="1.5" y2="0.0" stroke-width="3.0" stroke="#000000" /><text x="11.5" y="50.0" fill="#000000" font-size="0.85em" text-anchor="middle" transform="rotate(90, 11.5, 50.0)">1_INCR</text><text x="50" y="60" fill="#000000" font-size="0.85em" text-anchor="middle" transform="rotate(0, 50, 60)">0_INCR_R</text><text x="50" y="40" fill="#000000" font-size="1.1em" text-anchor="middle" transform="rotate(0, 50, 40)">0</text></svg><svg id="01_INCR_M" width="100" height="100" viewBox="0 0 100 100" xmlns="http://www.w3.org/2000/svg"><rect width="100" height="100" fill="#e01b24"/><line x1="0.0" y1="1.5" x2="100.0" y2="1.5" stroke-width="3.0" stroke="#000000" /><text x="50.0" y="11.5" fill="#ffffff" font-size="0.85em" text-anchor="middle" transform="rotate(180, 50.0, 11.5)">1</text><line x1="98.5" y1="0.0" x2="98.5" y2="100.0" stroke-width="3.0" stroke="#000000" /><text x="88.5" y="50.0" fill="#ffffff" font-size="0.85em" text-anchor="middle" transform="rotate(270, 88.5, 50.0)">1_INCR</text><line x1="100.0" y1="98.5" x2="0.0" y2="98.5" stroke-width="3.0" stroke="#000000" /><text x="50.0" y="88.5" fill="#ffffff" font-size="0.85em" text-anchor="middle" transform="rotate(0, 50.0, 88.5)">0</text><line x1="1.5" y1="100.0" x2="1.5" y2="0.0" stroke-width="3.0" stroke="#000000" /><text x="11.5" y="50.0" fill="#ffffff" font-size="0.85em" text-anchor="middle" transform="rotate(90, 11.5, 50.0)">0_INCR</text><text x="50" y="60" fill="#ffffff" font-size="0.85em" text-anchor="middle" transform="rotate(0, 50, 60)">01_INCR_M</text><text x="50" y="40" fill="#ffffff" font-size="1.1em" text-anchor="middle" transform="rotate(0, 50, 40)">1</text></svg><svg id="10_INCR_M" width="100" height="100" viewBox="0 0 100 100" xmlns="http://www.w3.org/2000/svg"><rect width="100" height="100" fill="#e01b24"/><line x1="0.0" y1="1.5" x2="100.0" y2="1.5" stroke-width="3.0" stroke="#000000" /><text x="50.0" y="11.5" fill="#ffffff" font-size="0.85em" text-anchor="middle" transform="rotate(180, 50.0, 11.5)">1</text><line x1="98.5" y1="0.0" x2="98.5" y2="100.0" stroke-width="3.0" stroke="#000000" /><text x="88.5" y="50.0" fill="#ffffff" font-size="0.85em" text-anchor="middle" transform="rotate(270, 88.5, 50.0)">0_INCR</text><line x1="100.0" y1="98.5" x2="0.0" y2="98.5" stroke-width="3.0" stroke="#000000" /><text x="50.0" y="88.5" fill="#ffffff" font-size="0.85em" text-anchor="middle" transform="rotate(0, 50.0, 88.5)">1</text><line x1="1.5" y1="100.0" x2="1.5" y2="0.0" stroke-width="3.0" stroke="#000000" /><text x="11.5" y="50.0" fill="#ffffff" font-size="0.85em" text-anchor="middle" transform="rotate(90, 11.5, 50.0)">0_INCR</text><text x="50" y="60" fill="#ffffff" font-size="0.85em" text-anchor="middle" transform="rotate(0, 50, 60)">10_INCR_M</text><text x="50" y="40" fill="#ffffff" font-size="1.1em" text-anchor="middle" transform="rotate(0, 50, 40)">1</text></svg><svg id="01_INCR_L" width="100" height="100" viewBox="0 0 100 100" xmlns="http://www.w3.org/2000/svg"><rect width="100" height="100" fill="#a51d2d"/><line x1="0.0" y1="1.5" x2="100.0" y2="1.5" stroke-width="3.0" stroke="#000000" /><line x1="0.0" y1="7.0" x2="100.0" y2="7.0" stroke-width="2.0" stroke="#000000" /><text x="50.0" y="16.5" fill="#ffffff" font-size="0.85em" text-anchor="middle" transform="rotate(180, 50.0, 16.5)">1_COPY</text><line x1="98.5" y1="0.0" x2="98.5" y2="100.0" stroke-width="3.0" stroke="#000000" /><text x="88.5" y="50.0" fill="#ffffff" font-size="0.85em" text-anchor="middle" transform="rotate(270, 88.5, 50.0)">1_INCR</text><line x1="100.0" y1="98.5" x2="0.0" y2="98.5" stroke-width="3.0" stroke="#000000" /><text x="50.0" y="88.5" fill="#ffffff" font-size="0.85em" text-anchor="middle" transform="rotate(0, 50.0, 88.5)">0_L</text><line x1="1.5" y1="100.0" x2="1.5" y2="0.0" stroke-width="3.0" stroke="#000000" stroke-dasharray="4.0"/><text x="50" y="60" fill="#ffffff" font-size="0.85em" text-anchor="middle" transform="rotate(0, 50, 60)">01_INCR_L</text><text x="50" y="40" fill="#ffffff" font-size="1.1em" text-anchor="middle" transform="rotate(0, 50, 40)">1</text></svg><svg id="10_INCR_L" width="100" height="100" viewBox="0 0 100 100" xmlns="http://www.w3.org/2000/svg"><rect width="100" height="100" fill="#a51d2d"/><line x1="0.0" y1="1.5" x2="100.0" y2="1.5" stroke-width="3.0" stroke="#000000" /><line x1="0.0" y1="7.0" x2="100.0" y2="7.0" stroke-width="2.0" stroke="#000000" /><text x="50.0" y="16.5" fill="#ffffff" font-size="0.85em" text-anchor="middle" transform="rotate(180, 50.0, 16.5)">1_COPY</text><line x1="98.5" y1="0.0" x2="98.5" y2="100.0" stroke-width="3.0" stroke="#000000" /><text x="88.5" y="50.0" fill="#ffffff" font-size="0.85em" text-anchor="middle" transform="rotate(270, 88.5, 50.0)">0_INCR</text><line x1="100.0" y1="98.5" x2="0.0" y2="98.5" stroke-width="3.0" stroke="#000000" /><text x="50.0" y="88.5" fill="#ffffff" font-size="0.85em" text-anchor="middle" transform="rotate(0, 50.0, 88.5)">1_L</text><line x1="1.5" y1="100.0" x2="1.5" y2="0.0" stroke-width="3.0" stroke="#000000" stroke-dasharray="4.0"/><text x="50" y="60" fill="#ffffff" font-size="0.85em" text-anchor="middle" transform="rotate(0, 50, 60)">10_INCR_L</text><text x="50" y="40" fill="#ffffff" font-size="1.1em" text-anchor="middle" transform="rotate(0, 50, 40)">1</text></svg><svg id="1_INCR_R" width="100" height="100" viewBox="0 0 100 100" xmlns="http://www.w3.org/2000/svg"><rect width="100" height="100" fill="#a51d2d"/><line x1="0.0" y1="1.5" x2="100.0" y2="1.5" stroke-width="3.0" stroke="#000000" /><text x="50.0" y="11.5" fill="#ffffff" font-size="0.85em" text-anchor="middle" transform="rotate(180, 50.0, 11.5)">1_R</text><line x1="98.5" y1="0.0" x2="98.5" y2="100.0" stroke-width="3.0" stroke="#000000" stroke-dasharray="4.0"/><line x1="100.0" y1="98.5" x2="0.0" y2="98.5" stroke-width="3.0" stroke="#000000" /><line x1="100.0" y1="93.0" x2="0.0" y2="93.0" stroke-width="2.0" stroke="#000000" /><text x="50.0" y="83.5" fill="#ffffff" font-size="0.85em" text-anchor="middle" transform="rotate(0, 50.0, 83.5)">0_INCR</text><line x1="1.5" y1="100.0" x2="1.5" y2="0.0" stroke-width="3.0" stroke="#000000" /><text x="11.5" y="50.0" fill="#ffffff" font-size="0.85em" text-anchor="middle" transform="rotate(90, 11.5, 50.0)">0_INCR</text><text x="50" y="60" fill="#ffffff" font-size="0.85em" text-anchor="middle" transform="rotate(0, 50, 60)">1_INCR_R</text><text x="50" y="40" fill="#ffffff" font-size="1.1em" text-anchor="middle" transform="rotate(0, 50, 40)">1</text></svg><svg id="0_COPY_M" width="100" height="100" viewBox="0 0 100 100" xmlns="http://www.w3.org/2000/svg"><rect width="100" height="100" fill="#ffffff"/><line x1="0.0" y1="1.5" x2="100.0" y2="1.5" stroke-width="3.0" stroke="#000000" /><text x="50.0" y="11.5" fill="#000000" font-size="0.85em" text-anchor="middle" transform="rotate(180, 50.0, 11.5)">0</text><line x1="98.5" y1="0.0" x2="98.5" y2="100.0" stroke-width="3.0" stroke="#000000" /><text x="88.5" y="50.0" fill="#000000" font-size="0.85em" text-anchor="middle" transform="rotate(270, 88.5, 50.0)">COPY</text><line x1="100.0" y1="98.5" x2="0.0" y2="98.5" stroke-width="3.0" stroke="#000000" /><text x="50.0" y="88.5" fill="#000000" font-size="0.85em" text-anchor="middle" transform="rotate(0, 50.0, 88.5)">0</text><line x1="1.5" y1="100.0" x2="1.5" y2="0.0" stroke-width="3.0" stroke="#000000" /><text x="11.5" y="50.0" fill="#000000" font-size="0.85em" text-anchor="middle" transform="rotate(90, 11.5, 50.0)">COPY</text><text x="50" y="60" fill="#000000" font-size="0.85em" text-anchor="middle" transform="rotate(0, 50, 60)">0_COPY_M</text><text x="50" y="40" fill="#000000" font-size="1.1em" text-anchor="middle" transform="rotate(0, 50, 40)">0</text></svg><svg id="0_COPY_M_END" width="100" height="100" viewBox="0 0 100 100" xmlns="http://www.w3.org/2000/svg"><rect width="100" height="100" fill="#ffffff"/><line x1="0.0" y1="1.5" x2="100.0" y2="1.5" stroke-width="3.0" stroke="#000000" /><text x="50.0" y="11.5" fill="#000000" font-size="0.85em" text-anchor="middle" transform="rotate(180, 50.0, 11.5)">0</text><line x1="98.5" y1="0.0" x2="98.5" y2="100.0" stroke-width="3.0" stroke="#000000" /><text x="88.5" y="50.0" fill="#000000" font-size="0.85em" text-anchor="middle" transform="rotate(270, 88.5, 50.0)">COPY</text><line x1="100.0" y1="98.5" x2="0.0" y2="98.5" stroke-width="3.0" stroke="#000000" /><text x="50.0" y="88.5" fill="#000000" font-size="0.85em" text-anchor="middle" transform="rotate(0, 50.0, 88.5)">0</text><line x1="1.5" y1="100.0" x2="1.5" y2="0.0" stroke-width="3.0" stroke="#000000" /><text x="11.5" y="50.0" fill="#000000" font-size="0.85em" text-anchor="middle" transform="rotate(90, 11.5, 50.0)">COPY_END</text><text x="50" y="60" fill="#000000" font-size="0.85em" text-anchor="middle" transform="rotate(0, 50, 60)">0_COPY_M_END</text><text x="50" y="40" fill="#000000" font-size="1.1em" text-anchor="middle" transform="rotate(0, 50, 40)">0</text></svg><svg id="0_COPY_L" width="100" height="100" viewBox="0 0 100 100" xmlns="http://www.w3.org/2000/svg"><rect width="100" height="100" fill="#c0bfbc"/><line x1="0.0" y1="1.5" x2="100.0" y2="1.5" stroke-width="3.0" stroke="#000000" /><text x="50.0" y="11.5" fill="#000000" font-size="0.85em" text-anchor="middle" transform="rotate(180, 50.0, 11.5)">0_L</text><line x1="98.5" y1="0.0" x2="98.5" y2="100.0" stroke-width="3.0" stroke="#000000" /><text x="88.5" y="50.0" fill="#000000" font-size="0.85em" text-anchor="middle" transform="rotate(270, 88.5, 50.0)">COPY</text><line x1="100.0" y1="98.5" x2="0.0" y2="98.5" stroke-width="3.0" stroke="#000000" /><line x1="100.0" y1="93.0" x2="0.0" y2="93.0" stroke-width="2.0" stroke="#000000" /><text x="50.0" y="83.5" fill="#000000" font-size="0.85em" text-anchor="middle" transform="rotate(0, 50.0, 83.5)">0_COPY</text><line x1="1.5" y1="100.0" x2="1.5" y2="0.0" stroke-width="3.0" stroke="#000000" stroke-dasharray="4.0"/><text x="50" y="60" fill="#000000" font-size="0.85em" text-anchor="middle" transform="rotate(0, 50, 60)">0_COPY_L</text><text x="50" y="40" fill="#000000" font-size="1.1em" text-anchor="middle" transform="rotate(0, 50, 40)">0</text></svg><svg id="0_COPY_R" width="100" height="100" viewBox="0 0 100 100" xmlns="http://www.w3.org/2000/svg"><rect width="100" height="100" fill="#c0bfbc"/><line x1="0.0" y1="1.5" x2="100.0" y2="1.5" stroke-width="3.0" stroke="#000000" /><line x1="0.0" y1="7.0" x2="100.0" y2="7.0" stroke-width="2.0" stroke="#000000" /><text x="50.0" y="16.5" fill="#000000" font-size="0.85em" text-anchor="middle" transform="rotate(180, 50.0, 16.5)">0_INCR</text><line x1="98.5" y1="0.0" x2="98.5" y2="100.0" stroke-width="3.0" stroke="#000000" stroke-dasharray="4.0"/><line x1="100.0" y1="98.5" x2="0.0" y2="98.5" stroke-width="3.0" stroke="#000000" /><text x="50.0" y="88.5" fill="#000000" font-size="0.85em" text-anchor="middle" transform="rotate(0, 50.0, 88.5)">0_R</text><line x1="1.5" y1="100.0" x2="1.5" y2="0.0" stroke-width="3.0" stroke="#000000" /><text x="11.5" y="50.0" fill="#000000" font-size="0.85em" text-anchor="middle" transform="rotate(90, 11.5, 50.0)">COPY</text><text x="50" y="60" fill="#000000" font-size="0.85em" text-anchor="middle" transform="rotate(0, 50, 60)">0_COPY_R</text><text x="50" y="40" fill="#000000" font-size="1.1em" text-anchor="middle" transform="rotate(0, 50, 40)">0</text></svg><svg id="0_COPY_R_END" width="100" height="100" viewBox="0 0 100 100" xmlns="http://www.w3.org/2000/svg"><rect width="100" height="100" fill="#c0bfbc"/><line x1="0.0" y1="1.5" x2="100.0" y2="1.5" stroke-width="3.0" stroke="#000000" /><line x1="0.0" y1="7.0" x2="100.0" y2="7.0" stroke-width="2.0" stroke="#000000" /><text x="50.0" y="16.5" fill="#000000" font-size="0.85em" text-anchor="middle" transform="rotate(180, 50.0, 16.5)">0_INCR</text><line x1="98.5" y1="0.0" x2="98.5" y2="100.0" stroke-width="3.0" stroke="#000000" stroke-dasharray="4.0"/><line x1="100.0" y1="98.5" x2="0.0" y2="98.5" stroke-width="3.0" stroke="#000000" /><text x="50.0" y="88.5" fill="#000000" font-size="0.85em" text-anchor="middle" transform="rotate(0, 50.0, 88.5)">0_R</text><line x1="1.5" y1="100.0" x2="1.5" y2="0.0" stroke-width="3.0" stroke="#000000" /><text x="11.5" y="50.0" fill="#000000" font-size="0.85em" text-anchor="middle" transform="rotate(90, 11.5, 50.0)">COPY_END</text><text x="50" y="60" fill="#000000" font-size="0.85em" text-anchor="middle" transform="rotate(0, 50, 60)">0_COPY_R_END</text><text x="50" y="40" fill="#000000" font-size="1.1em" text-anchor="middle" transform="rotate(0, 50, 40)">0</text></svg><svg id="1_COPY_M" width="100" height="100" viewBox="0 0 100 100" xmlns="http://www.w3.org/2000/svg"><rect width="100" height="100" fill="#e01b24"/><line x1="0.0" y1="1.5" x2="100.0" y2="1.5" stroke-width="3.0" stroke="#000000" /><text x="50.0" y="11.5" fill="#ffffff" font-size="0.85em" text-anchor="middle" transform="rotate(180, 50.0, 11.5)">1</text><line x1="98.5" y1="0.0" x2="98.5" y2="100.0" stroke-width="3.0" stroke="#000000" /><text x="88.5" y="50.0" fill="#ffffff" font-size="0.85em" text-anchor="middle" transform="rotate(270, 88.5, 50.0)">COPY</text><line x1="100.0" y1="98.5" x2="0.0" y2="98.5" stroke-width="3.0" stroke="#000000" /><text x="50.0" y="88.5" fill="#ffffff" font-size="0.85em" text-anchor="middle" transform="rotate(0, 50.0, 88.5)">1</text><line x1="1.5" y1="100.0" x2="1.5" y2="0.0" stroke-width="3.0" stroke="#000000" /><text x="11.5" y="50.0" fill="#ffffff" font-size="0.85em" text-anchor="middle" transform="rotate(90, 11.5, 50.0)">COPY</text><text x="50" y="60" fill="#ffffff" font-size="0.85em" text-anchor="middle" transform="rotate(0, 50, 60)">1_COPY_M</text><text x="50" y="40" fill="#ffffff" font-size="1.1em" text-anchor="middle" transform="rotate(0, 50, 40)">1</text></svg><svg id="1_COPY_M_END" width="100" height="100" viewBox="0 0 100 100" xmlns="http://www.w3.org/2000/svg"><rect width="100" height="100" fill="#e01b24"/><line x1="0.0" y1="1.5" x2="100.0" y2="1.5" stroke-width="3.0" stroke="#000000" /><text x="50.0" y="11.5" fill="#ffffff" font-size="0.85em" text-anchor="middle" transform="rotate(180, 50.0, 11.5)">1</text><line x1="98.5" y1="0.0" x2="98.5" y2="100.0" stroke-width="3.0" stroke="#000000" /><text x="88.5" y="50.0" fill="#ffffff" font-size="0.85em" text-anchor="middle" transform="rotate(270, 88.5, 50.0)">COPY_END</text><line x1="100.0" y1="98.5" x2="0.0" y2="98.5" stroke-width="3.0" stroke="#000000" /><text x="50.0" y="88.5" fill="#ffffff" font-size="0.85em" text-anchor="middle" transform="rotate(0, 50.0, 88.5)">1</text><line x1="1.5" y1="100.0" x2="1.5" y2="0.0" stroke-width="3.0" stroke="#000000" /><text x="11.5" y="50.0" fill="#ffffff" font-size="0.85em" text-anchor="middle" transform="rotate(90, 11.5, 50.0)">COPY_END</text><text x="50" y="60" fill="#ffffff" font-size="0.85em" text-anchor="middle" transform="rotate(0, 50, 60)">1_COPY_M_END</text><text x="50" y="40" fill="#ffffff" font-size="1.1em" text-anchor="middle" transform="rotate(0, 50, 40)">1</text></svg><svg id="1_COPY_L" width="100" height="100" viewBox="0 0 100 100" xmlns="http://www.w3.org/2000/svg"><rect width="100" height="100" fill="#a51d2d"/><line x1="0.0" y1="1.5" x2="100.0" y2="1.5" stroke-width="3.0" stroke="#000000" /><text x="50.0" y="11.5" fill="#ffffff" font-size="0.85em" text-anchor="middle" transform="rotate(180, 50.0, 11.5)">1_L</text><line x1="98.5" y1="0.0" x2="98.5" y2="100.0" stroke-width="3.0" stroke="#000000" /><text x="88.5" y="50.0" fill="#ffffff" font-size="0.85em" text-anchor="middle" transform="rotate(270, 88.5, 50.0)">COPY_END</text><line x1="100.0" y1="98.5" x2="0.0" y2="98.5" stroke-width="3.0" stroke="#000000" /><line x1="100.0" y1="93.0" x2="0.0" y2="93.0" stroke-width="2.0" stroke="#000000" /><text x="50.0" y="83.5" fill="#ffffff" font-size="0.85em" text-anchor="middle" transform="rotate(0, 50.0, 83.5)">1_COPY</text><line x1="1.5" y1="100.0" x2="1.5" y2="0.0" stroke-width="3.0" stroke="#000000" stroke-dasharray="4.0"/><text x="50" y="60" fill="#ffffff" font-size="0.85em" text-anchor="middle" transform="rotate(0, 50, 60)">1_COPY_L</text><text x="50" y="40" fill="#ffffff" font-size="1.1em" text-anchor="middle" transform="rotate(0, 50, 40)">1</text></svg><svg id="1_COPY_R" width="100" height="100" viewBox="0 0 100 100" xmlns="http://www.w3.org/2000/svg"><rect width="100" height="100" fill="#a51d2d"/><line x1="0.0" y1="1.5" x2="100.0" y2="1.5" stroke-width="3.0" stroke="#000000" /><line x1="0.0" y1="7.0" x2="100.0" y2="7.0" stroke-width="2.0" stroke="#000000" /><text x="50.0" y="16.5" fill="#ffffff" font-size="0.85em" text-anchor="middle" transform="rotate(180, 50.0, 16.5)">1_INCR</text><line x1="98.5" y1="0.0" x2="98.5" y2="100.0" stroke-width="3.0" stroke="#000000" stroke-dasharray="4.0"/><line x1="100.0" y1="98.5" x2="0.0" y2="98.5" stroke-width="3.0" stroke="#000000" /><text x="50.0" y="88.5" fill="#ffffff" font-size="0.85em" text-anchor="middle" transform="rotate(0, 50.0, 88.5)">1_R</text><line x1="1.5" y1="100.0" x2="1.5" y2="0.0" stroke-width="3.0" stroke="#000000" /><text x="11.5" y="50.0" fill="#ffffff" font-size="0.85em" text-anchor="middle" transform="rotate(90, 11.5, 50.0)">COPY</text><text x="50" y="60" fill="#ffffff" font-size="0.85em" text-anchor="middle" transform="rotate(0, 50, 60)">1_COPY_R</text><text x="50" y="40" fill="#ffffff" font-size="1.1em" text-anchor="middle" transform="rotate(0, 50, 40)">1</text></svg><svg id="1_COPY_R_END" width="100" height="100" viewBox="0 0 100 100" xmlns="http://www.w3.org/2000/svg"><rect width="100" height="100" fill="#a51d2d"/><line x1="0.0" y1="1.5" x2="100.0" y2="1.5" stroke-width="3.0" stroke="#000000" /><line x1="0.0" y1="7.0" x2="100.0" y2="7.0" stroke-width="2.0" stroke="#000000" /><text x="50.0" y="16.5" fill="#ffffff" font-size="0.85em" text-anchor="middle" transform="rotate(180, 50.0, 16.5)">END</text><line x1="98.5" y1="0.0" x2="98.5" y2="100.0" stroke-width="3.0" stroke="#000000" stroke-dasharray="4.0"/><line x1="100.0" y1="98.5" x2="0.0" y2="98.5" stroke-width="3.0" stroke="#000000" /><text x="50.0" y="88.5" fill="#ffffff" font-size="0.85em" text-anchor="middle" transform="rotate(0, 50.0, 88.5)">1_R</text><line x1="1.5" y1="100.0" x2="1.5" y2="0.0" stroke-width="3.0" stroke="#000000" /><text x="11.5" y="50.0" fill="#ffffff" font-size="0.85em" text-anchor="middle" transform="rotate(90, 11.5, 50.0)">COPY_END</text><text x="50" y="60" fill="#ffffff" font-size="0.85em" text-anchor="middle" transform="rotate(0, 50, 60)">1_COPY_R_END</text><text x="50" y="40" fill="#ffffff" font-size="1.1em" text-anchor="middle" transform="rotate(0, 50, 40)">1</text></svg><svg id="END_M" width="100" height="100" viewBox="0 0 100 100" xmlns="http://www.w3.org/2000/svg"><rect width="100" height="100" fill="#33d17a"/><line x1="0.0" y1="1.5" x2="100.0" y2="1.5" stroke-width="3.0" stroke="#000000" stroke-dasharray="4.0"/><line x1="98.5" y1="0.0" x2="98.5" y2="100.0" stroke-width="3.0" stroke="#000000" /><text x="88.5" y="50.0" fill="#ffffff" font-size="0.85em" text-anchor="middle" transform="rotate(270, 88.5, 50.0)">END</text><line x1="100.0" y1="98.5" x2="0.0" y2="98.5" stroke-width="3.0" stroke="#000000" /><text x="50.0" y="88.5" fill="#ffffff" font-size="0.85em" text-anchor="middle" transform="rotate(0, 50.0, 88.5)">1</text><line x1="1.5" y1="100.0" x2="1.5" y2="0.0" stroke-width="3.0" stroke="#000000" /><text x="11.5" y="50.0" fill="#ffffff" font-size="0.85em" text-anchor="middle" transform="rotate(90, 11.5, 50.0)">END</text><text x="50" y="60" fill="#ffffff" font-size="0.85em" text-anchor="middle" transform="rotate(0, 50, 60)">END_M</text><text x="50" y="40" fill="#ffffff" font-size="1.1em" text-anchor="middle" transform="rotate(0, 50, 40)">0</text></svg><svg id="END_L" width="100" height="100" viewBox="0 0 100 100" xmlns="http://www.w3.org/2000/svg"><rect width="100" height="100" fill="#26a269"/><line x1="0.0" y1="1.5" x2="100.0" y2="1.5" stroke-width="3.0" stroke="#000000" stroke-dasharray="4.0"/><line x1="98.5" y1="0.0" x2="98.5" y2="100.0" stroke-width="3.0" stroke="#000000" /><text x="88.5" y="50.0" fill="#ffffff" font-size="0.85em" text-anchor="middle" transform="rotate(270, 88.5, 50.0)">END</text><line x1="100.0" y1="98.5" x2="0.0" y2="98.5" stroke-width="3.0" stroke="#000000" /><text x="50.0" y="88.5" fill="#ffffff" font-size="0.85em" text-anchor="middle" transform="rotate(0, 50.0, 88.5)">1_L</text><line x1="1.5" y1="100.0" x2="1.5" y2="0.0" stroke-width="3.0" stroke="#000000" stroke-dasharray="4.0"/><text x="50" y="60" fill="#ffffff" font-size="0.85em" text-anchor="middle" transform="rotate(0, 50, 60)">END_L</text><text x="50" y="40" fill="#ffffff" font-size="1.1em" text-anchor="middle" transform="rotate(0, 50, 40)">0</text></svg><svg id="END_R" width="100" height="100" viewBox="0 0 100 100" xmlns="http://www.w3.org/2000/svg"><rect width="100" height="100" fill="#26a269"/><line x1="0.0" y1="1.5" x2="100.0" y2="1.5" stroke-width="3.0" stroke="#000000" stroke-dasharray="4.0"/><line x1="98.5" y1="0.0" x2="98.5" y2="100.0" stroke-width="3.0" stroke="#000000" stroke-dasharray="4.0"/><line x1="100.0" y1="98.5" x2="0.0" y2="98.5" stroke-width="3.0" stroke="#000000" /><line x1="100.0" y1="93.0" x2="0.0" y2="93.0" stroke-width="2.0" stroke="#000000" /><text x="50.0" y="83.5" fill="#ffffff" font-size="0.85em" text-anchor="middle" transform="rotate(0, 50.0, 83.5)">END</text><line x1="1.5" y1="100.0" x2="1.5" y2="0.0" stroke-width="3.0" stroke="#000000" /><text x="11.5" y="50.0" fill="#ffffff" font-size="0.85em" text-anchor="middle" transform="rotate(90, 11.5, 50.0)">END</text><text x="50" y="60" fill="#ffffff" font-size="0.85em" text-anchor="middle" transform="rotate(0, 50, 60)">END_R</text><text x="50" y="40" fill="#ffffff" font-size="1.1em" text-anchor="middle" transform="rotate(0, 50, 40)">0</text></svg></defs><use href="#0_SEED_L" x="0" y="200"/><use href="#0_SEED_M" x="100" y="200"/><use href="#1_SEED_M" x="200" y="200"/><use href="#1_SEED_M" x="300" y="200"/><use href="#1_SEED_M" x="400" y="200"/><use href="#0_SEED_R" x="500" y="200"/><use href="#1_INCR_R" x="500" y="100"/><use href="#10_INCR_M" x="400" y="100"/><use href="#10_INCR_M" x="300" y="100"/><use href="#10_INCR_M" x="200" y="100"/><use href="#00_INCR_M" x="100" y="100"/><use href="#00_INCR_L" x="0" y="100"/><use href="#0_COPY_L" x="0" y="0"/><use href="#0_COPY_M" x="100" y="0"/><use href="#1_COPY_M" x="200" y="0"/></svg>